<?xml version="1.0" encoding="utf-8"?>
<!-- Generator: Adobe Illustrator 22.1.0, SVG Export Plug-In . SVG Version: 6.00 Build 0)  -->
<svg version="1.1" id="Layer_1" xmlns="http://www.w3.org/2000/svg" xmlns:xlink="http://www.w3.org/1999/xlink" x="0px" y="0px"
	 viewBox="0 0 226.3 113" style="enable-background:new 0 0 226.3 113;" xml:space="preserve">
<style type="text/css">
	.st0{font-family:'Doubleplus';}
	.st1{font-size:40.8553px;}
	.st2{letter-spacing:11;}
	.st3{fill:#C90000;}
	.st4{fill:#FFB700;}
	.st5{fill:#FD7809;}
</style>
<g>
	<text transform="matrix(1 0 0 1 5.7104 35.9751)" class="st0 st1 st2">JETSADA</text>
</g>
<path class="st3" d="M19,80.5v24.9H5.7V43.2H19v24.9h17.8V43.2h13.3v62.2H36.8V80.5L19,80.5L19,80.5z"/>
<path d="M77.8,93.8H59.5l-3.3,11.6H42.8l17.8-62.2h16l17.8,62.2H81.1L77.8,93.8z M63,81.4h11.2l-5.6-19.6L63,81.4z"/>
<path class="st4" d="M116.4,88.5V43.2h13.3v45.3c0,11.3-5.9,16.9-17.8,16.9H103c-11.9,0-17.8-5.6-17.8-16.9V43.2h13.3v45.3
	c0,3,1.5,4.4,4.4,4.4h8.9C114.9,92.9,116.4,91.5,116.4,88.5z"/>
<path d="M140.5,76.1l-19-32.9h15.4L147.2,61l10.3-17.8h15.4l-19,32.9v29.3h-13.3L140.5,76.1L140.5,76.1z"/>
<g>
	<path class="st4" d="M194.5,43.2L175.1,81H166l15.5-30.2h-13.4v-7.6H194.5z"/>
</g>
<g>
	<path class="st3" d="M201.9,80.8c0,2.6-0.5,4.7-1.6,6.3c1.1,1.6,1.6,3.7,1.6,6.3v2.1c0,6.6-3.5,10-10.5,10h-5.2
		c-7,0-10.5-3.3-10.5-10v-2.1c0-2.6,0.5-4.7,1.6-6.3c-1.1-1.6-1.6-3.7-1.6-6.3v-2.1c0-6.6,3.5-10,10.5-10h5.2c7,0,10.5,3.3,10.5,10
		V80.8z M191.4,83.4c1.7,0,2.6-0.9,2.6-2.6v-2.1c0-1.7-0.9-2.6-2.6-2.6h-5.2c-1.7,0-2.6,0.9-2.6,2.6v2.1c0,1.7,0.9,2.6,2.6,2.6
		H191.4z M191.4,90.7h-5.2c-1.7,0-2.6,0.9-2.6,2.6v2.1c0,1.7,0.9,2.6,2.6,2.6h5.2c1.7,0,2.6-0.9,2.6-2.6v-2.1
		C194,91.6,193.1,90.7,191.4,90.7z"/>
</g>
<g>
	<path class="st5" d="M195.5,60.3c0-6.6,3.5-10,10.5-10h5.2c7,0,10.5,3.3,10.5,10v16.8c0,6.6-3.5,10-10.5,10h-13.1v-7.3h13.1
		c1.7,0,2.6-0.9,2.6-2.6v-3.6c-0.8,0.1-1.7,0.2-2.6,0.2H206c-7,0-10.5-3.3-10.5-10V60.3z M206,57.7c-1.7,0-2.6,0.9-2.6,2.6v3.4
		c0,1.7,0.9,2.6,2.6,2.6h5.2c1.7,0,2.6-0.9,2.6-2.6v-3.4c0-1.7-0.9-2.6-2.6-2.6H206z"/>
</g>
</svg>
